<svg xmlns="http://www.w3.org/2000/svg" width="500" height="290">

    <style>
      text { font-family: system-ui, sans-serif; }
      .title { fill: #0366d6; font-size: 18px; font-weight: bold; }
      .lang { fill: #24292e; font-size: 14px; }
    </style>
    
<rect width="100%" height="100%" fill="#f6f8fa" rx="12" />
<text x="20" y="30" class="title">Langages les plus utilisés</text>
<rect x="20" y="60" width="300.0" height="16" rx="4" fill="#f1e05a"/>
<text x="330" y="73" class="lang">PHP</text>
<rect x="20" y="90" width="82.56828597011177" height="16" rx="4" fill="#e34c26"/>
<text x="330" y="103" class="lang">JavaScript</text>
<rect x="20" y="120" width="46.74503817802756" height="16" rx="4" fill="#563d7c"/>
<text x="330" y="133" class="lang">CSS</text>
<rect x="20" y="150" width="20.198505919163686" height="16" rx="4" fill="#2b7489"/>
<text x="330" y="163" class="lang">HTML</text>
<rect x="20" y="180" width="6.688341081275751" height="16" rx="4" fill="#3572a5"/>
<text x="330" y="193" class="lang">TypeScript</text>
<rect x="20" y="210" width="4.762093563425746" height="16" rx="4" fill="#89e051"/>
<text x="330" y="223" class="lang">Hack</text>
<rect x="20" y="240" width="3.1130538787620474" height="16" rx="4" fill="#dea584"/>
<text x="330" y="253" class="lang">Python</text>
<rect x="20" y="270" width="1.2102649498944362" height="16" rx="4" fill="#ffac45"/>
<text x="330" y="283" class="lang">Blade</text>
</svg>